<?xml version="1.0" encoding="UTF-8" standalone="no"?>
<!DOCTYPE svg PUBLIC "-//W3C//DTD SVG 1.1//EN" "http://www.w3.org/Graphics/SVG/1.1/DTD/svg11.dtd">
<svg width="100%" height="100%" viewBox="0 0 1285 568" version="1.1" xmlns="http://www.w3.org/2000/svg" xmlns:xlink="http://www.w3.org/1999/xlink" xml:space="preserve" xmlns:serif="http://www.serif.com/" style="fill-rule:evenodd;clip-rule:evenodd;stroke-linejoin:round;stroke-miterlimit:2;">
    <g id="Artboard1" transform="matrix(1,0,0,1,-94.3944,-94.1804)">
        <rect x="94.394" y="94.18" width="1284.67" height="567.429" style="fill:none;"/>
        <clipPath id="_clip1">
            <rect x="94.394" y="94.18" width="1284.67" height="567.429"/>
        </clipPath>
        <g clip-path="url(#_clip1)">
            <g id="warstwa-1" serif:id="warstwa 1" transform="matrix(4.16667,0,0,4.16667,0.394388,0.180371)">
                <g transform="matrix(8.63804,0,0,5.80558,-792.727,-524.169)">
                    <rect x="94.394" y="94.18" width="35.694" height="23.457" style="fill:rgb(235,235,235);fill-opacity:0;"/>
                </g>
                <g transform="matrix(-0.982877,-0.184264,-0.184264,0.982877,54.0994,41.9521)">
                    <path d="M-53.33,85.752L-7.178,85.752L5.357,18.886L-36.616,-3.403L-53.33,85.752Z" style="fill:rgb(7,78,162);fill-rule:nonzero;"/>
                </g>
                <g transform="matrix(1,0,0,1,45.3606,93.7506)">
                    <path d="M0,17.458L0,-0.205C2.284,0.417 4.825,0.708 6.5,-0.303C10.164,-2.488 15.713,-9.178 15.713,-9.178C15.713,-9.178 12.787,-1.963 13.891,0.687C15.057,3.499 21.99,3.65 21.99,3.65C21.99,3.65 14.153,8.414 10.506,11.573C6.755,14.794 4.151,26.636 4.151,26.636C4.151,26.636 2.332,19.046 0,17.458" style="fill:rgb(255,242,0);fill-rule:nonzero;"/>
                </g>
                <g transform="matrix(1,0,0,1,90.7149,109.703)">
                    <path d="M0,-29.655C-1.569,-28.667 -3.108,-27.889 -4.266,-27.663C-7.911,-26.96 -11.812,-31.147 -11.812,-31.147C-11.812,-31.147 -10.895,-25.025 -13.188,-21.254C-15.602,-17.28 -23.364,-12.303 -23.364,-12.303C-23.364,-12.303 -14.784,-13.963 -13.116,-11.302C-11.342,-8.448 -11.105,1.492 -11.105,1.492C-11.105,1.492 -6.733,-10.442 -2.767,-12.068C-1.995,-12.396 -1.03,-12.7 0,-12.993L0,-29.655Z" style="fill:rgb(237,28,36);fill-rule:nonzero;"/>
                </g>
                <g transform="matrix(1,0,0,1,61.0741,61.3713)">
                    <path d="M0,23.201C0,23.201 4.384,16.332 4.119,13.887C3.859,11.566 -0.688,10.729 -0.688,10.729C-0.688,10.729 5.265,9.267 7.861,6.933C10.365,4.678 12.555,0 12.555,0C12.555,0 13.109,3.871 15.336,4.426C17.634,5.004 23.773,2.525 23.773,2.525C23.773,2.525 18.927,7.111 17.025,9.612C15.038,12.22 17.829,17.185 17.829,17.185C17.829,17.185 12.685,15.395 9.808,15.933C6.975,16.471 0,23.201 0,23.201" style="fill:white;fill-rule:nonzero;"/>
                </g>
                <g transform="matrix(1,0,0,1,113.38,62.3573)">
                    <path d="M0,17.012L0,0L10.752,0L10.752,2.627L3.093,2.627L3.093,6.972L9.893,6.972L9.893,9.598L3.093,9.598L3.093,17.012L0,17.012Z" style="fill:rgb(35,31,32);fill-rule:nonzero;"/>
                </g>
                <g transform="matrix(1,0,0,1,136.603,66.9477)">
                    <path d="M0,11.759C-0.573,11.906 -1.317,12.058 -2.234,12.213C-3.151,12.369 -4.157,12.446 -5.253,12.446C-6.284,12.446 -7.148,12.299 -7.843,12.004C-8.539,11.71 -9.095,11.301 -9.512,10.777C-9.93,10.253 -10.229,9.627 -10.409,8.899C-10.589,8.171 -10.679,7.373 -10.679,6.506L-10.679,-0.687L-7.708,-0.687L-7.708,6.039C-7.708,7.414 -7.508,8.396 -7.107,8.985C-6.706,9.574 -6.006,9.868 -5.008,9.868C-4.648,9.868 -4.268,9.852 -3.866,9.82C-3.465,9.787 -3.167,9.746 -2.97,9.697L-2.97,-0.687L0,-0.687L0,11.759Z" style="fill:rgb(35,31,32);fill-rule:nonzero;"/>
                </g>
                <g transform="matrix(1,0,0,1,140.236,78.6819)">
                    <path d="M0,-11.734C0.573,-11.897 1.317,-12.053 2.234,-12.2C3.15,-12.348 4.165,-12.421 5.278,-12.421C6.325,-12.421 7.201,-12.278 7.904,-11.992C8.608,-11.705 9.169,-11.304 9.586,-10.789C10.003,-10.274 10.298,-9.651 10.47,-8.923C10.642,-8.195 10.728,-7.397 10.728,-6.53L10.728,0.687L7.757,0.687L7.757,-6.063C7.757,-6.751 7.712,-7.336 7.622,-7.818C7.532,-8.301 7.385,-8.694 7.18,-8.997C6.976,-9.299 6.697,-9.52 6.346,-9.66C5.994,-9.798 5.564,-9.868 5.057,-9.868C4.68,-9.868 4.288,-9.844 3.878,-9.795C3.469,-9.746 3.167,-9.705 2.97,-9.672L2.97,0.687L0,0.687L0,-11.734Z" style="fill:rgb(35,31,32);fill-rule:nonzero;"/>
                </g>
                <g transform="matrix(1,0,0,1,156.782,69.1328)">
                    <path d="M0,3.486C0,4.795 0.311,5.822 0.933,6.567C1.554,7.311 2.413,7.683 3.51,7.683C3.984,7.683 4.39,7.663 4.726,7.622C5.061,7.582 5.335,7.536 5.548,7.487L5.548,0.123C5.285,-0.057 4.937,-0.225 4.504,-0.381C4.07,-0.536 3.608,-0.614 3.117,-0.614C2.037,-0.614 1.247,-0.245 0.748,0.491C0.249,1.227 0,2.226 0,3.486M8.518,9.549C7.929,9.73 7.187,9.893 6.296,10.04C5.404,10.187 4.468,10.261 3.485,10.261C2.471,10.261 1.562,10.106 0.761,9.795C-0.041,9.484 -0.725,9.038 -1.289,8.457C-1.854,7.876 -2.288,7.172 -2.59,6.346C-2.893,5.519 -3.044,4.59 -3.044,3.559C-3.044,2.545 -2.918,1.624 -2.664,0.798C-2.41,-0.029 -2.038,-0.737 -1.547,-1.326C-1.056,-1.915 -0.459,-2.369 0.245,-2.688C0.948,-3.007 1.759,-3.167 2.676,-3.167C3.297,-3.167 3.845,-3.093 4.32,-2.946C4.795,-2.799 5.204,-2.635 5.548,-2.455L5.548,-6.285L8.518,-6.775L8.518,9.549Z" style="fill:rgb(35,31,32);fill-rule:nonzero;"/>
                </g>
                <g transform="matrix(1,0,0,1,179.463,66.9477)">
                    <path d="M0,11.759C-0.572,11.906 -1.317,12.058 -2.233,12.213C-3.15,12.369 -4.156,12.446 -5.253,12.446C-6.284,12.446 -7.147,12.299 -7.843,12.004C-8.538,11.71 -9.095,11.301 -9.512,10.777C-9.93,10.253 -10.229,9.627 -10.408,8.899C-10.588,8.171 -10.678,7.373 -10.678,6.506L-10.678,-0.687L-7.708,-0.687L-7.708,6.039C-7.708,7.414 -7.508,8.396 -7.106,8.985C-6.705,9.574 -6.006,9.868 -5.008,9.868C-4.647,9.868 -4.268,9.852 -3.866,9.82C-3.465,9.787 -3.166,9.746 -2.97,9.697L-2.97,-0.687L0,-0.687L0,11.759Z" style="fill:rgb(35,31,32);fill-rule:nonzero;"/>
                </g>
                <g transform="matrix(1,0,0,1,186.313,68.3722)">
                    <path d="M0,8.567C0.785,8.567 1.357,8.473 1.718,8.285C2.078,8.097 2.258,7.774 2.258,7.315C2.258,6.89 2.065,6.538 1.681,6.259C1.296,5.982 0.662,5.679 -0.222,5.351C-0.762,5.155 -1.257,4.946 -1.706,4.725C-2.157,4.504 -2.545,4.247 -2.873,3.952C-3.2,3.657 -3.458,3.301 -3.646,2.884C-3.834,2.467 -3.928,1.956 -3.928,1.35C-3.928,0.171 -3.495,-0.757 -2.627,-1.436C-1.76,-2.115 -0.582,-2.455 0.908,-2.455C1.66,-2.455 2.381,-2.385 3.068,-2.246C3.756,-2.107 4.271,-1.972 4.614,-1.841L4.074,0.564C3.747,0.417 3.33,0.282 2.822,0.159C2.315,0.036 1.726,-0.025 1.055,-0.025C0.449,-0.025 -0.041,0.078 -0.418,0.282C-0.794,0.487 -0.982,0.802 -0.982,1.227C-0.982,1.44 -0.945,1.628 -0.872,1.792C-0.798,1.956 -0.672,2.107 -0.491,2.246C-0.312,2.385 -0.074,2.524 0.221,2.663C0.515,2.802 0.875,2.945 1.301,3.093C2.004,3.355 2.602,3.612 3.093,3.866C3.584,4.12 3.988,4.406 4.308,4.725C4.627,5.044 4.86,5.409 5.008,5.817C5.154,6.227 5.229,6.718 5.229,7.291C5.229,8.518 4.774,9.447 3.866,10.077C2.958,10.707 1.66,11.022 -0.025,11.022C-1.154,11.022 -2.063,10.928 -2.75,10.739C-3.438,10.551 -3.92,10.4 -4.198,10.285L-3.683,7.806C-3.241,7.986 -2.713,8.158 -2.1,8.321C-1.485,8.485 -0.786,8.567 0,8.567" style="fill:rgb(35,31,32);fill-rule:nonzero;"/>
                </g>
                <g transform="matrix(1,0,0,1,203.152,77.2834)">
                    <path d="M0,-8.666C-0.328,-8.322 -0.758,-7.839 -1.289,-7.218C-1.821,-6.596 -2.39,-5.904 -2.995,-5.144C-3.602,-4.382 -4.211,-3.588 -4.824,-2.762C-5.438,-1.936 -5.99,-1.146 -6.481,-0.394L0.147,-0.394L0.147,2.086L-10.064,2.086L-10.064,0.245C-9.705,-0.41 -9.255,-1.122 -8.715,-1.891C-8.175,-2.66 -7.618,-3.433 -7.046,-4.21C-6.473,-4.988 -5.904,-5.728 -5.34,-6.432C-4.774,-7.136 -4.271,-7.749 -3.83,-8.273L-9.746,-8.273L-9.746,-10.752L0,-10.752L0,-8.666Z" style="fill:rgb(35,31,32);fill-rule:nonzero;"/>
                </g>
                <g transform="matrix(1,0,0,1,213.388,73.9193)">
                    <path d="M0,-2.528C0,-2.937 -0.058,-3.326 -0.172,-3.694C-0.287,-4.062 -0.454,-4.382 -0.676,-4.652C-0.896,-4.922 -1.166,-5.134 -1.485,-5.29C-1.805,-5.445 -2.185,-5.523 -2.627,-5.523C-3.085,-5.523 -3.486,-5.437 -3.83,-5.265C-4.174,-5.093 -4.464,-4.868 -4.701,-4.59C-4.938,-4.312 -5.123,-3.992 -5.254,-3.633C-5.385,-3.273 -5.475,-2.904 -5.523,-2.528L0,-2.528ZM-8.616,-1.202C-8.616,-2.332 -8.449,-3.321 -8.113,-4.173C-7.778,-5.024 -7.332,-5.732 -6.775,-6.296C-6.22,-6.861 -5.581,-7.286 -4.86,-7.573C-4.141,-7.859 -3.404,-8.002 -2.651,-8.002C-0.884,-8.002 0.494,-7.454 1.485,-6.358C2.475,-5.261 2.97,-3.624 2.97,-1.448C2.97,-1.284 2.966,-1.1 2.958,-0.896C2.949,-0.691 2.938,-0.507 2.921,-0.343L-5.548,-0.343C-5.467,0.688 -5.103,1.486 -4.456,2.05C-3.81,2.615 -2.872,2.897 -1.645,2.897C-0.925,2.897 -0.267,2.832 0.331,2.701C0.929,2.57 1.399,2.43 1.742,2.284L2.136,4.714C1.972,4.796 1.746,4.882 1.46,4.972C1.174,5.061 0.847,5.143 0.479,5.217C0.11,5.29 -0.287,5.352 -0.712,5.401C-1.138,5.45 -1.571,5.474 -2.014,5.474C-3.143,5.474 -4.124,5.307 -4.959,4.972C-5.794,4.636 -6.48,4.17 -7.021,3.572C-7.562,2.975 -7.962,2.271 -8.224,1.461C-8.485,0.651 -8.616,-0.236 -8.616,-1.202" style="fill:rgb(35,31,32);fill-rule:nonzero;"/>
                </g>
                <g transform="matrix(1,0,0,1,113.38,85.0346)">
                    <path d="M0,17.012L0,0L10.924,0L10.924,2.627L3.093,2.627L3.093,6.824L10.064,6.824L10.064,9.402L3.093,9.402L3.093,14.386L11.513,14.386L11.513,17.012L0,17.012Z" style="fill:rgb(35,31,32);fill-rule:nonzero;"/>
                </g>
                <g transform="matrix(1,0,0,1,137.584,89.625)">
                    <path d="M0,11.759C-0.573,11.906 -1.317,12.058 -2.234,12.213C-3.151,12.369 -4.157,12.446 -5.253,12.446C-6.284,12.446 -7.148,12.299 -7.843,12.004C-8.539,11.71 -9.095,11.301 -9.512,10.777C-9.93,10.253 -10.229,9.627 -10.409,8.899C-10.589,8.171 -10.679,7.373 -10.679,6.506L-10.679,-0.687L-7.708,-0.687L-7.708,6.039C-7.708,7.414 -7.508,8.396 -7.107,8.985C-6.706,9.574 -6.006,9.868 -5.008,9.868C-4.648,9.868 -4.268,9.852 -3.866,9.82C-3.465,9.787 -3.167,9.746 -2.97,9.697L-2.97,-0.687L0,-0.687L0,11.759Z" style="fill:rgb(35,31,32);fill-rule:nonzero;"/>
                </g>
                <g transform="matrix(1,0,0,1,148.533,99.1005)">
                    <path d="M0,-7.217C-0.246,-7.299 -0.585,-7.384 -1.019,-7.474C-1.453,-7.564 -1.956,-7.61 -2.528,-7.61C-2.856,-7.61 -3.204,-7.576 -3.572,-7.511C-3.94,-7.446 -4.198,-7.389 -4.345,-7.34L-4.345,2.946L-7.315,2.946L-7.315,-9.279C-6.743,-9.491 -6.026,-9.692 -5.167,-9.88C-4.308,-10.068 -3.355,-10.163 -2.308,-10.163C-2.111,-10.163 -1.882,-10.15 -1.62,-10.126C-1.358,-10.101 -1.097,-10.068 -0.834,-10.028C-0.573,-9.987 -0.319,-9.937 -0.074,-9.88C0.172,-9.823 0.368,-9.77 0.516,-9.721L0,-7.217Z" style="fill:rgb(35,31,32);fill-rule:nonzero;"/>
                </g>
                <g transform="matrix(1,0,0,1,159.531,95.3441)">
                    <path d="M0,-0.048C0,-1.325 -0.273,-2.335 -0.822,-3.08C-1.371,-3.824 -2.135,-4.197 -3.117,-4.197C-4.1,-4.197 -4.865,-3.824 -5.413,-3.08C-5.961,-2.335 -6.235,-1.325 -6.235,-0.048C-6.235,1.245 -5.961,2.268 -5.413,3.02C-4.865,3.773 -4.1,4.149 -3.117,4.149C-2.135,4.149 -1.371,3.773 -0.822,3.02C-0.273,2.268 0,1.245 0,-0.048M3.043,-0.048C3.043,0.967 2.896,1.891 2.602,2.726C2.307,3.56 1.891,4.272 1.35,4.861C0.811,5.451 0.16,5.909 -0.602,6.236C-1.363,6.564 -2.201,6.727 -3.117,6.727C-4.034,6.727 -4.869,6.564 -5.622,6.236C-6.375,5.909 -7.021,5.451 -7.561,4.861C-8.101,4.272 -8.522,3.56 -8.825,2.726C-9.128,1.891 -9.279,0.967 -9.279,-0.048C-9.279,-1.063 -9.128,-1.983 -8.825,-2.81C-8.522,-3.636 -8.097,-4.344 -7.548,-4.933C-7,-5.523 -6.35,-5.977 -5.597,-6.296C-4.844,-6.615 -4.018,-6.775 -3.117,-6.775C-2.219,-6.775 -1.387,-6.615 -0.627,-6.296C0.135,-5.977 0.785,-5.523 1.326,-4.933C1.865,-4.344 2.287,-3.636 2.59,-2.81C2.893,-1.983 3.043,-1.063 3.043,-0.048" style="fill:rgb(35,31,32);fill-rule:nonzero;"/>
                </g>
                <g transform="matrix(1,0,0,1,174.014,99.8367)">
                    <path d="M0,-4.148C0,-5.474 -0.299,-6.504 -0.896,-7.241C-1.493,-7.978 -2.455,-8.346 -3.78,-8.346C-4.059,-8.346 -4.349,-8.334 -4.651,-8.309C-4.955,-8.284 -5.253,-8.231 -5.548,-8.149L-5.548,-0.81C-5.286,-0.629 -4.938,-0.461 -4.505,-0.306C-4.071,-0.15 -3.608,-0.073 -3.117,-0.073C-2.037,-0.073 -1.248,-0.441 -0.749,-1.178C-0.25,-1.914 0,-2.904 0,-4.148M3.044,-4.197C3.044,-3.215 2.917,-2.315 2.664,-1.497C2.41,-0.678 2.046,0.025 1.571,0.614C1.097,1.204 0.503,1.662 -0.209,1.989C-0.92,2.316 -1.727,2.48 -2.627,2.48C-3.232,2.48 -3.789,2.406 -4.296,2.259C-4.803,2.112 -5.221,1.948 -5.548,1.768L-5.548,6.751L-8.518,6.751L-8.518,-10.211C-7.913,-10.375 -7.168,-10.53 -6.284,-10.678C-5.4,-10.825 -4.468,-10.899 -3.485,-10.899C-2.471,-10.899 -1.562,-10.743 -0.761,-10.432C0.041,-10.121 0.725,-9.675 1.289,-9.094C1.854,-8.513 2.287,-7.81 2.59,-6.983C2.893,-6.157 3.044,-5.228 3.044,-4.197" style="fill:rgb(35,31,32);fill-rule:nonzero;"/>
                </g>
                <g transform="matrix(1,0,0,1,187.884,96.5966)">
                    <path d="M0,-2.528C0,-2.937 -0.058,-3.326 -0.172,-3.694C-0.287,-4.062 -0.454,-4.382 -0.676,-4.652C-0.896,-4.922 -1.166,-5.134 -1.485,-5.29C-1.805,-5.445 -2.185,-5.523 -2.627,-5.523C-3.085,-5.523 -3.486,-5.437 -3.83,-5.265C-4.174,-5.093 -4.464,-4.868 -4.701,-4.59C-4.938,-4.312 -5.123,-3.992 -5.254,-3.633C-5.385,-3.273 -5.475,-2.904 -5.523,-2.528L0,-2.528ZM-8.616,-1.202C-8.616,-2.332 -8.449,-3.321 -8.113,-4.173C-7.778,-5.024 -7.332,-5.732 -6.775,-6.296C-6.22,-6.861 -5.581,-7.286 -4.86,-7.573C-4.141,-7.859 -3.404,-8.002 -2.651,-8.002C-0.884,-8.002 0.494,-7.454 1.485,-6.358C2.475,-5.261 2.97,-3.624 2.97,-1.448C2.97,-1.284 2.966,-1.1 2.958,-0.896C2.949,-0.691 2.938,-0.507 2.921,-0.343L-5.548,-0.343C-5.467,0.688 -5.103,1.486 -4.456,2.05C-3.81,2.615 -2.872,2.897 -1.645,2.897C-0.925,2.897 -0.267,2.832 0.331,2.701C0.929,2.57 1.399,2.43 1.742,2.284L2.136,4.714C1.972,4.796 1.746,4.882 1.46,4.972C1.174,5.061 0.847,5.143 0.479,5.217C0.11,5.29 -0.287,5.352 -0.712,5.401C-1.138,5.45 -1.571,5.474 -2.014,5.474C-3.143,5.474 -4.124,5.307 -4.959,4.972C-5.794,4.636 -6.48,4.17 -7.021,3.572C-7.562,2.975 -7.962,2.271 -8.224,1.461C-8.485,0.651 -8.616,-0.236 -8.616,-1.202" style="fill:rgb(35,31,32);fill-rule:nonzero;"/>
                </g>
                <g transform="matrix(1,0,0,1,197.138,104.771)">
                    <path d="M0,-19.319C0,-18.763 -0.181,-18.321 -0.54,-17.994C-0.9,-17.666 -1.325,-17.503 -1.816,-17.503C-2.324,-17.503 -2.758,-17.666 -3.117,-17.994C-3.478,-18.321 -3.657,-18.763 -3.657,-19.319C-3.657,-19.892 -3.478,-20.342 -3.117,-20.67C-2.758,-20.997 -2.324,-21.16 -1.816,-21.16C-1.325,-21.16 -0.9,-20.997 -0.54,-20.67C-0.181,-20.342 0,-19.892 0,-19.319M-4.935,1.841C-5.147,1.841 -5.445,1.821 -5.83,1.78C-6.215,1.739 -6.555,1.661 -6.849,1.547L-6.456,-0.883C-6.096,-0.769 -5.662,-0.712 -5.155,-0.712C-4.468,-0.712 -3.985,-0.912 -3.707,-1.313C-3.429,-1.715 -3.289,-2.316 -3.289,-3.117L-3.289,-15.563L-0.319,-15.563L-0.319,-3.069C-0.319,-1.399 -0.716,-0.164 -1.51,0.639C-2.304,1.44 -3.445,1.841 -4.935,1.841" style="fill:rgb(35,31,32);fill-rule:nonzero;"/>
                </g>
                <g transform="matrix(1,0,0,1,203.668,91.0494)">
                    <path d="M0,8.567C0.785,8.567 1.357,8.473 1.718,8.285C2.078,8.097 2.258,7.774 2.258,7.315C2.258,6.89 2.065,6.538 1.681,6.259C1.296,5.982 0.662,5.679 -0.222,5.351C-0.762,5.155 -1.257,4.946 -1.706,4.725C-2.157,4.504 -2.545,4.247 -2.873,3.952C-3.2,3.657 -3.458,3.301 -3.646,2.884C-3.834,2.467 -3.928,1.956 -3.928,1.35C-3.928,0.171 -3.495,-0.757 -2.627,-1.436C-1.76,-2.115 -0.582,-2.455 0.908,-2.455C1.66,-2.455 2.381,-2.385 3.068,-2.246C3.756,-2.107 4.271,-1.972 4.614,-1.841L4.074,0.564C3.747,0.417 3.33,0.282 2.822,0.159C2.315,0.036 1.726,-0.025 1.055,-0.025C0.449,-0.025 -0.041,0.078 -0.418,0.282C-0.794,0.487 -0.982,0.802 -0.982,1.227C-0.982,1.44 -0.945,1.628 -0.872,1.792C-0.798,1.956 -0.672,2.107 -0.491,2.246C-0.312,2.385 -0.074,2.524 0.221,2.663C0.515,2.802 0.875,2.945 1.301,3.093C2.004,3.355 2.602,3.612 3.093,3.866C3.584,4.12 3.988,4.406 4.308,4.725C4.627,5.044 4.86,5.409 5.008,5.817C5.154,6.227 5.229,6.718 5.229,7.291C5.229,8.518 4.774,9.447 3.866,10.077C2.958,10.707 1.66,11.022 -0.025,11.022C-1.154,11.022 -2.063,10.928 -2.75,10.739C-3.438,10.551 -3.92,10.4 -4.198,10.285L-3.683,7.806C-3.241,7.986 -2.713,8.158 -2.1,8.321C-1.485,8.485 -0.786,8.567 0,8.567" style="fill:rgb(35,31,32);fill-rule:nonzero;"/>
                </g>
                <g transform="matrix(1,0,0,1,214.493,92.8655)">
                    <path d="M0,1.35C0.376,0.957 0.777,0.537 1.203,0.086C1.628,-0.364 2.046,-0.814 2.455,-1.264C2.864,-1.714 3.253,-2.148 3.621,-2.565C3.989,-2.983 4.304,-3.346 4.566,-3.657L8.076,-3.657C7.258,-2.741 6.395,-1.792 5.486,-0.81C4.578,0.172 3.666,1.129 2.75,2.062C3.24,2.472 3.756,2.967 4.296,3.547C4.836,4.128 5.359,4.746 5.867,5.401C6.374,6.056 6.849,6.71 7.291,7.365C7.732,8.019 8.101,8.625 8.396,9.181L4.959,9.181C4.664,8.674 4.324,8.142 3.94,7.585C3.556,7.029 3.143,6.489 2.7,5.965C2.259,5.442 1.809,4.947 1.351,4.48C0.892,4.014 0.442,3.617 0,3.289L0,9.181L-2.97,9.181L-2.97,-7.34L0,-7.831L0,1.35Z" style="fill:rgb(35,31,32);fill-rule:nonzero;"/>
                </g>
                <g transform="matrix(1,0,0,1,0,4.241)">
                    <path d="M227.896,97.806L224.926,97.806L224.926,84.968L227.896,84.968L227.896,97.806ZM228.215,81.211C228.215,81.767 228.035,82.209 227.675,82.537C227.315,82.864 226.89,83.028 226.399,83.028C225.891,83.028 225.457,82.864 225.098,82.537C224.738,82.209 224.558,81.767 224.558,81.211C224.558,80.639 224.738,80.188 225.098,79.861C225.457,79.534 225.891,79.37 226.399,79.37C226.89,79.37 227.315,79.534 227.675,79.861C228.035,80.188 228.215,80.639 228.215,81.211" style="fill:rgb(35,31,32);fill-rule:nonzero;"/>
                </g>
                <g transform="matrix(1,0,0,1,239.434,96.5966)">
                    <path d="M0,-2.528C0,-2.937 -0.058,-3.326 -0.172,-3.694C-0.287,-4.062 -0.454,-4.382 -0.676,-4.652C-0.896,-4.922 -1.166,-5.134 -1.485,-5.29C-1.805,-5.445 -2.185,-5.523 -2.627,-5.523C-3.085,-5.523 -3.486,-5.437 -3.83,-5.265C-4.174,-5.093 -4.464,-4.868 -4.701,-4.59C-4.938,-4.312 -5.123,-3.992 -5.254,-3.633C-5.385,-3.273 -5.475,-2.904 -5.523,-2.528L0,-2.528ZM-8.616,-1.202C-8.616,-2.332 -8.449,-3.321 -8.113,-4.173C-7.778,-5.024 -7.332,-5.732 -6.775,-6.296C-6.22,-6.861 -5.581,-7.286 -4.86,-7.573C-4.141,-7.859 -3.404,-8.002 -2.651,-8.002C-0.884,-8.002 0.494,-7.454 1.485,-6.358C2.475,-5.261 2.97,-3.624 2.97,-1.448C2.97,-1.284 2.966,-1.1 2.958,-0.896C2.949,-0.691 2.938,-0.507 2.921,-0.343L-5.548,-0.343C-5.467,0.688 -5.103,1.486 -4.456,2.05C-3.81,2.615 -2.872,2.897 -1.645,2.897C-0.925,2.897 -0.267,2.832 0.331,2.701C0.929,2.57 1.399,2.43 1.742,2.284L2.136,4.714C1.972,4.796 1.746,4.882 1.46,4.972C1.174,5.061 0.847,5.143 0.479,5.217C0.11,5.29 -0.287,5.352 -0.712,5.401C-1.138,5.45 -1.571,5.474 -2.014,5.474C-3.143,5.474 -4.124,5.307 -4.959,4.972C-5.794,4.636 -6.48,4.17 -7.021,3.572C-7.562,2.975 -7.962,2.271 -8.224,1.461C-8.485,0.651 -8.616,-0.236 -8.616,-1.202" style="fill:rgb(35,31,32);fill-rule:nonzero;"/>
                </g>
                <g transform="matrix(1,0,0,1,0,56.836)">
                    <rect x="113.399" y="56.677" width="1.572" height="11.227" style="fill:rgb(35,31,32);"/>
                </g>
                <g transform="matrix(1,0,0,1,117.579,124.318)">
                    <path d="M0,-7.76C0.346,-7.846 0.805,-7.938 1.377,-8.035C1.949,-8.133 2.608,-8.181 3.354,-8.181C4.023,-8.181 4.579,-8.086 5.022,-7.898C5.465,-7.708 5.818,-7.444 6.083,-7.104C6.348,-6.763 6.534,-6.356 6.642,-5.881C6.75,-5.406 6.804,-4.882 6.804,-4.309L6.804,0.421L5.297,0.421L5.297,-3.985C5.297,-4.504 5.262,-4.947 5.192,-5.314C5.122,-5.681 5.006,-5.978 4.844,-6.205C4.682,-6.431 4.466,-6.596 4.196,-6.699C3.926,-6.802 3.591,-6.853 3.191,-6.853C3.029,-6.853 2.862,-6.847 2.689,-6.837C2.517,-6.825 2.352,-6.812 2.195,-6.796C2.039,-6.78 1.898,-6.761 1.774,-6.739C1.65,-6.718 1.561,-6.701 1.507,-6.691L1.507,0.421L0,0.421L0,-7.76Z" style="fill:rgb(35,31,32);fill-rule:nonzero;"/>
                </g>
                <g transform="matrix(1,0,0,1,130.085,124.739)">
                    <path d="M0,-12.571C0.443,-12.571 0.824,-12.538 1.142,-12.474C1.46,-12.409 1.685,-12.349 1.814,-12.296L1.539,-11C1.41,-11.064 1.226,-11.126 0.988,-11.186C0.75,-11.245 0.459,-11.275 0.114,-11.275C-0.589,-11.275 -1.08,-11.083 -1.361,-10.7C-1.642,-10.316 -1.782,-9.8 -1.782,-9.153L-1.782,-8.424L1.458,-8.424L1.458,-7.16L-1.782,-7.16L-1.782,0L-3.289,0L-3.289,-9.185C-3.289,-10.265 -3.024,-11.099 -2.495,-11.688C-1.966,-12.277 -1.134,-12.571 0,-12.571" style="fill:rgb(35,31,32);fill-rule:nonzero;"/>
                </g>
                <g transform="matrix(1,0,0,1,136.079,124.739)">
                    <path d="M0,-8.602C0.13,-8.602 0.278,-8.594 0.446,-8.578C0.613,-8.561 0.778,-8.54 0.94,-8.513C1.102,-8.486 1.25,-8.459 1.385,-8.432C1.52,-8.405 1.62,-8.381 1.685,-8.359L1.426,-7.047C1.307,-7.09 1.11,-7.142 0.834,-7.201C0.559,-7.26 0.205,-7.29 -0.227,-7.29C-0.508,-7.29 -0.786,-7.26 -1.061,-7.201C-1.336,-7.142 -1.518,-7.101 -1.604,-7.08L-1.604,0L-3.11,0L-3.11,-8.067C-2.754,-8.197 -2.311,-8.319 -1.782,-8.432C-1.253,-8.545 -0.659,-8.602 0,-8.602" style="fill:rgb(35,31,32);fill-rule:nonzero;"/>
                </g>
                <g transform="matrix(1,0,0,1,141.992,117.207)">
                    <path d="M0,6.285C0.356,6.285 0.672,6.277 0.948,6.261C1.223,6.244 1.453,6.215 1.636,6.172L1.636,3.661C1.528,3.607 1.353,3.561 1.11,3.523C0.867,3.485 0.573,3.466 0.227,3.466C0,3.466 -0.24,3.483 -0.494,3.515C-0.748,3.547 -0.98,3.615 -1.19,3.718C-1.401,3.82 -1.577,3.96 -1.717,4.139C-1.857,4.317 -1.928,4.552 -1.928,4.844C-1.928,5.384 -1.755,5.759 -1.409,5.969C-1.063,6.18 -0.594,6.285 0,6.285M-0.129,-1.264C0.476,-1.264 0.986,-1.186 1.401,-1.029C1.817,-0.872 2.152,-0.651 2.406,-0.365C2.66,-0.079 2.84,0.262 2.949,0.656C3.057,1.05 3.111,1.485 3.111,1.96L3.111,7.225C2.981,7.246 2.8,7.276 2.568,7.314C2.335,7.352 2.074,7.387 1.782,7.419C1.491,7.452 1.175,7.481 0.834,7.508C0.494,7.535 0.157,7.549 -0.178,7.549C-0.653,7.549 -1.091,7.5 -1.49,7.403C-1.89,7.306 -2.235,7.152 -2.527,6.941C-2.818,6.731 -3.045,6.453 -3.208,6.107C-3.369,5.762 -3.45,5.346 -3.45,4.86C-3.45,4.395 -3.356,3.995 -3.167,3.661C-2.978,3.326 -2.721,3.056 -2.397,2.851C-2.073,2.646 -1.695,2.494 -1.263,2.397C-0.832,2.3 -0.378,2.251 0.098,2.251C0.249,2.251 0.405,2.26 0.567,2.276C0.729,2.292 0.883,2.314 1.029,2.341C1.175,2.368 1.302,2.392 1.41,2.413C1.518,2.435 1.593,2.452 1.636,2.462L1.636,2.041C1.636,1.792 1.609,1.547 1.556,1.304C1.501,1.061 1.404,0.845 1.264,0.656C1.124,0.467 0.932,0.315 0.689,0.202C0.446,0.089 0.13,0.032 -0.259,0.032C-0.756,0.032 -1.19,0.067 -1.563,0.137C-1.936,0.208 -2.214,0.281 -2.397,0.356L-2.576,-0.891C-2.381,-0.978 -2.057,-1.062 -1.604,-1.143C-1.15,-1.223 -0.659,-1.264 -0.129,-1.264" style="fill:rgb(35,31,32);fill-rule:nonzero;"/>
                </g>
                <g transform="matrix(1,0,0,1,149.476,117.191)">
                    <path d="M0,6.269C0.615,6.269 1.072,6.188 1.369,6.026C1.666,5.864 1.814,5.605 1.814,5.248C1.814,4.881 1.668,4.59 1.377,4.373C1.085,4.158 0.604,3.915 -0.065,3.644C-0.389,3.515 -0.7,3.383 -0.997,3.248C-1.293,3.113 -1.55,2.954 -1.766,2.77C-1.982,2.586 -2.155,2.365 -2.284,2.105C-2.414,1.846 -2.479,1.528 -2.479,1.15C-2.479,0.405 -2.203,-0.187 -1.652,-0.624C-1.102,-1.062 -0.351,-1.28 0.599,-1.28C0.837,-1.28 1.074,-1.267 1.312,-1.24C1.549,-1.212 1.771,-1.18 1.976,-1.143C2.181,-1.105 2.362,-1.064 2.519,-1.021C2.675,-0.978 2.797,-0.94 2.883,-0.908L2.608,0.389C2.446,0.302 2.192,0.213 1.847,0.121C1.501,0.029 1.085,-0.017 0.599,-0.017C0.178,-0.017 -0.189,0.067 -0.502,0.234C-0.816,0.402 -0.972,0.664 -0.972,1.02C-0.972,1.204 -0.937,1.366 -0.867,1.506C-0.797,1.646 -0.688,1.773 -0.543,1.887C-0.397,2 -0.216,2.105 0,2.203C0.216,2.3 0.475,2.403 0.777,2.511C1.177,2.662 1.533,2.811 1.847,2.956C2.16,3.102 2.427,3.272 2.648,3.466C2.87,3.661 3.04,3.895 3.159,4.171C3.277,4.446 3.337,4.784 3.337,5.184C3.337,5.961 3.048,6.55 2.47,6.949C1.893,7.349 1.069,7.549 0,7.549C-0.745,7.549 -1.329,7.487 -1.75,7.362C-2.171,7.238 -2.457,7.144 -2.608,7.079L-2.333,5.783C-2.16,5.848 -1.885,5.945 -1.507,6.075C-1.129,6.204 -0.626,6.269 0,6.269" style="fill:rgb(35,31,32);fill-rule:nonzero;"/>
                </g>
                <g transform="matrix(1,0,0,1,156.069,122.115)">
                    <path d="M0,-5.994L3.191,-5.994L3.191,-4.731L0,-4.731L0,-0.843C0,-0.421 0.033,-0.073 0.098,0.202C0.162,0.478 0.26,0.694 0.389,0.85C0.519,1.007 0.681,1.117 0.875,1.182C1.069,1.247 1.296,1.279 1.556,1.279C2.009,1.279 2.374,1.229 2.649,1.126C2.925,1.023 3.116,0.95 3.225,0.907L3.516,2.154C3.364,2.23 3.1,2.324 2.722,2.438C2.344,2.551 1.912,2.608 1.426,2.608C0.854,2.608 0.381,2.535 0.008,2.389C-0.364,2.243 -0.664,2.025 -0.891,1.733C-1.118,1.442 -1.277,1.083 -1.369,0.656C-1.46,0.229 -1.506,-0.265 -1.506,-0.827L-1.506,-8.343L0,-8.602L0,-5.994Z" style="fill:rgb(35,31,32);fill-rule:nonzero;"/>
                </g>
                <g transform="matrix(1,0,0,1,164.201,124.739)">
                    <path d="M0,-8.602C0.13,-8.602 0.278,-8.594 0.445,-8.578C0.613,-8.561 0.777,-8.54 0.939,-8.513C1.102,-8.486 1.25,-8.459 1.385,-8.432C1.521,-8.405 1.62,-8.381 1.685,-8.359L1.426,-7.047C1.307,-7.09 1.109,-7.142 0.834,-7.201C0.559,-7.26 0.205,-7.29 -0.227,-7.29C-0.508,-7.29 -0.785,-7.26 -1.061,-7.201C-1.336,-7.142 -1.518,-7.101 -1.604,-7.08L-1.604,0L-3.11,0L-3.11,-8.067C-2.754,-8.197 -2.312,-8.319 -1.782,-8.432C-1.253,-8.545 -0.659,-8.602 0,-8.602" style="fill:rgb(35,31,32);fill-rule:nonzero;"/>
                </g>
                <g transform="matrix(1,0,0,1,173.97,116.558)">
                    <path d="M0,7.76C-0.346,7.847 -0.802,7.938 -1.369,8.035C-1.936,8.133 -2.592,8.181 -3.337,8.181C-3.985,8.181 -4.531,8.087 -4.974,7.898C-5.416,7.709 -5.772,7.442 -6.043,7.096C-6.312,6.75 -6.507,6.343 -6.626,5.873C-6.745,5.403 -6.804,4.882 -6.804,4.31L-6.804,-0.421L-5.298,-0.421L-5.298,3.986C-5.298,5.012 -5.136,5.746 -4.812,6.189C-4.487,6.632 -3.942,6.853 -3.176,6.853C-3.014,6.853 -2.846,6.848 -2.673,6.837C-2.501,6.826 -2.339,6.812 -2.188,6.796C-2.036,6.78 -1.898,6.764 -1.774,6.748C-1.65,6.732 -1.561,6.713 -1.507,6.691L-1.507,-0.421L0,-0.421L0,7.76Z" style="fill:rgb(35,31,32);fill-rule:nonzero;"/>
                </g>
                <g transform="matrix(1,0,0,1,179.527,116.801)">
                    <path d="M0,3.305C0.324,3.554 0.667,3.862 1.028,4.228C1.391,4.596 1.747,4.992 2.098,5.419C2.448,5.846 2.78,6.278 3.094,6.715C3.407,7.153 3.672,7.56 3.888,7.938L2.122,7.938C1.896,7.56 1.633,7.174 1.336,6.78C1.039,6.386 0.729,6.008 0.405,5.646C0.081,5.284 -0.249,4.952 -0.583,4.65C-0.918,4.347 -1.237,4.094 -1.539,3.888L-1.539,7.938L-3.046,7.938L-3.046,-4.374L-1.539,-4.633L-1.539,3.046L-0.681,2.187C-0.367,1.874 -0.06,1.555 0.243,1.231C0.545,0.908 0.831,0.597 1.102,0.3C1.371,0.003 1.604,-0.259 1.798,-0.486L3.563,-0.486C3.315,-0.216 3.045,0.081 2.754,0.405C2.462,0.729 2.16,1.056 1.847,1.386C1.533,1.715 1.218,2.044 0.898,2.373C0.58,2.703 0.28,3.013 0,3.305" style="fill:rgb(35,31,32);fill-rule:nonzero;"/>
                </g>
                <g transform="matrix(1,0,0,1,186.265,122.115)">
                    <path d="M0,-5.994L3.191,-5.994L3.191,-4.731L0,-4.731L0,-0.843C0,-0.421 0.033,-0.073 0.098,0.202C0.162,0.478 0.26,0.694 0.389,0.85C0.519,1.007 0.681,1.117 0.875,1.182C1.069,1.247 1.296,1.279 1.556,1.279C2.009,1.279 2.374,1.229 2.649,1.126C2.925,1.023 3.116,0.95 3.225,0.907L3.516,2.154C3.364,2.23 3.1,2.324 2.722,2.438C2.344,2.551 1.912,2.608 1.426,2.608C0.854,2.608 0.381,2.535 0.009,2.389C-0.364,2.243 -0.664,2.025 -0.891,1.733C-1.117,1.442 -1.277,1.083 -1.368,0.656C-1.461,0.229 -1.506,-0.265 -1.506,-0.827L-1.506,-8.343L0,-8.602L0,-5.994Z" style="fill:rgb(35,31,32);fill-rule:nonzero;"/>
                </g>
                <g transform="matrix(1,0,0,1,197.995,116.558)">
                    <path d="M0,7.76C-0.346,7.847 -0.802,7.938 -1.369,8.035C-1.936,8.133 -2.592,8.181 -3.337,8.181C-3.985,8.181 -4.531,8.087 -4.974,7.898C-5.416,7.709 -5.772,7.442 -6.043,7.096C-6.312,6.75 -6.507,6.343 -6.626,5.873C-6.745,5.403 -6.804,4.882 -6.804,4.31L-6.804,-0.421L-5.298,-0.421L-5.298,3.986C-5.298,5.012 -5.136,5.746 -4.812,6.189C-4.487,6.632 -3.942,6.853 -3.176,6.853C-3.014,6.853 -2.846,6.848 -2.673,6.837C-2.501,6.826 -2.339,6.812 -2.188,6.796C-2.036,6.78 -1.898,6.764 -1.774,6.748C-1.65,6.732 -1.561,6.713 -1.507,6.691L-1.507,-0.421L0,-0.421L0,7.76Z" style="fill:rgb(35,31,32);fill-rule:nonzero;"/>
                </g>
                <g transform="matrix(1,0,0,1,203.616,124.739)">
                    <path d="M0,-8.602C0.13,-8.602 0.278,-8.594 0.445,-8.578C0.613,-8.561 0.777,-8.54 0.939,-8.513C1.102,-8.486 1.25,-8.459 1.385,-8.432C1.521,-8.405 1.62,-8.381 1.685,-8.359L1.426,-7.047C1.307,-7.09 1.109,-7.142 0.834,-7.201C0.559,-7.26 0.205,-7.29 -0.227,-7.29C-0.508,-7.29 -0.785,-7.26 -1.061,-7.201C-1.336,-7.142 -1.518,-7.101 -1.604,-7.08L-1.604,0L-3.11,0L-3.11,-8.067C-2.754,-8.197 -2.312,-8.319 -1.782,-8.432C-1.253,-8.545 -0.659,-8.602 0,-8.602" style="fill:rgb(35,31,32);fill-rule:nonzero;"/>
                </g>
                <g transform="matrix(1,0,0,1,209.529,117.207)">
                    <path d="M0,6.285C0.356,6.285 0.672,6.277 0.947,6.261C1.223,6.244 1.452,6.215 1.636,6.172L1.636,3.661C1.528,3.607 1.353,3.561 1.109,3.523C0.866,3.485 0.572,3.466 0.227,3.466C0,3.466 -0.241,3.483 -0.494,3.515C-0.748,3.547 -0.98,3.615 -1.191,3.718C-1.401,3.82 -1.577,3.96 -1.718,4.139C-1.858,4.317 -1.928,4.552 -1.928,4.844C-1.928,5.384 -1.756,5.759 -1.409,5.969C-1.064,6.18 -0.595,6.285 0,6.285M-0.13,-1.264C0.475,-1.264 0.985,-1.186 1.401,-1.029C1.816,-0.872 2.151,-0.651 2.405,-0.365C2.659,-0.079 2.84,0.262 2.948,0.656C3.056,1.05 3.11,1.485 3.11,1.96L3.11,7.225C2.98,7.246 2.8,7.276 2.567,7.314C2.335,7.352 2.073,7.387 1.782,7.419C1.49,7.452 1.174,7.481 0.834,7.508C0.494,7.535 0.156,7.549 -0.179,7.549C-0.654,7.549 -1.091,7.5 -1.49,7.403C-1.891,7.306 -2.236,7.152 -2.527,6.941C-2.819,6.731 -3.046,6.453 -3.208,6.107C-3.37,5.762 -3.451,5.346 -3.451,4.86C-3.451,4.395 -3.356,3.995 -3.167,3.661C-2.979,3.326 -2.722,3.056 -2.397,2.851C-2.074,2.646 -1.696,2.494 -1.264,2.397C-0.832,2.3 -0.379,2.251 0.097,2.251C0.248,2.251 0.404,2.26 0.566,2.276C0.729,2.292 0.883,2.314 1.028,2.341C1.174,2.368 1.301,2.392 1.409,2.413C1.517,2.435 1.593,2.452 1.636,2.462L1.636,2.041C1.636,1.792 1.608,1.547 1.555,1.304C1.501,1.061 1.403,0.845 1.264,0.656C1.123,0.467 0.932,0.315 0.688,0.202C0.445,0.089 0.129,0.032 -0.26,0.032C-0.756,0.032 -1.191,0.067 -1.563,0.137C-1.937,0.208 -2.214,0.281 -2.397,0.356L-2.576,-0.891C-2.382,-0.978 -2.058,-1.062 -1.604,-1.143C-1.15,-1.223 -0.659,-1.264 -0.13,-1.264" style="fill:rgb(35,31,32);fill-rule:nonzero;"/>
                </g>
                <g transform="matrix(1,0,0,1,0,56.138)">
                    <path d="M220.221,68.601L218.714,68.601L218.714,60.177L220.221,60.177L220.221,68.601ZM219.459,58.655C219.189,58.655 218.96,58.565 218.77,58.388C218.582,58.209 218.487,57.969 218.487,57.666C218.487,57.364 218.582,57.124 218.77,56.946C218.96,56.767 219.189,56.678 219.459,56.678C219.728,56.678 219.959,56.767 220.147,56.946C220.337,57.124 220.432,57.364 220.432,57.666C220.432,57.969 220.337,58.209 220.147,58.388C219.959,58.565 219.728,58.655 219.459,58.655" style="fill:rgb(35,31,32);fill-rule:nonzero;"/>
                </g>
                <g transform="matrix(1,0,0,1,231.528,123.784)">
                    <path d="M0,-13.187L-2.284,-10.968L-3.046,-11.648L-0.973,-14.143L0,-13.187ZM-2.431,-0.405C-0.789,-0.405 0.032,-0.967 0.032,-2.09C0.032,-2.436 -0.041,-2.73 -0.187,-2.973C-0.332,-3.216 -0.529,-3.427 -0.778,-3.604C-1.026,-3.783 -1.31,-3.937 -1.628,-4.066C-1.947,-4.196 -2.284,-4.326 -2.641,-4.455C-3.052,-4.596 -3.44,-4.755 -3.808,-4.933C-4.175,-5.111 -4.493,-5.322 -4.763,-5.565C-5.033,-5.808 -5.246,-6.097 -5.403,-6.432C-5.56,-6.766 -5.638,-7.171 -5.638,-7.646C-5.638,-8.629 -5.303,-9.396 -4.634,-9.947C-3.964,-10.498 -3.04,-10.773 -1.863,-10.773C-1.183,-10.773 -0.564,-10.7 -0.009,-10.555C0.548,-10.409 0.955,-10.249 1.215,-10.077L0.713,-8.797C0.485,-8.937 0.148,-9.075 -0.3,-9.21C-0.748,-9.345 -1.27,-9.413 -1.863,-9.413C-2.166,-9.413 -2.446,-9.38 -2.706,-9.315C-2.965,-9.25 -3.191,-9.153 -3.386,-9.023C-3.58,-8.894 -3.734,-8.729 -3.848,-8.529C-3.961,-8.33 -4.018,-8.095 -4.018,-7.825C-4.018,-7.522 -3.959,-7.269 -3.84,-7.063C-3.721,-6.858 -3.554,-6.677 -3.338,-6.52C-3.121,-6.364 -2.87,-6.221 -2.584,-6.091C-2.298,-5.962 -1.982,-5.832 -1.637,-5.703C-1.15,-5.508 -0.705,-5.314 -0.3,-5.12C0.105,-4.925 0.456,-4.693 0.753,-4.423C1.05,-4.153 1.279,-3.832 1.441,-3.459C1.604,-3.086 1.685,-2.635 1.685,-2.106C1.685,-1.124 1.325,-0.367 0.607,0.162C-0.111,0.691 -1.124,0.956 -2.431,0.956C-2.873,0.956 -3.28,0.926 -3.653,0.867C-4.026,0.807 -4.358,0.737 -4.649,0.656C-4.941,0.575 -5.192,0.489 -5.403,0.396C-5.613,0.305 -5.778,0.227 -5.897,0.162L-5.427,-1.134C-5.179,-0.994 -4.801,-0.837 -4.293,-0.665C-3.786,-0.492 -3.165,-0.405 -2.431,-0.405" style="fill:rgb(35,31,32);fill-rule:nonzero;"/>
                </g>
                <g transform="matrix(1,0,0,1,238.04,124.739)">
                    <path d="M0,-8.602C0.13,-8.602 0.278,-8.594 0.445,-8.578C0.613,-8.561 0.777,-8.54 0.939,-8.513C1.102,-8.486 1.25,-8.459 1.385,-8.432C1.521,-8.405 1.62,-8.381 1.685,-8.359L1.426,-7.047C1.307,-7.09 1.109,-7.142 0.834,-7.201C0.559,-7.26 0.205,-7.29 -0.227,-7.29C-0.508,-7.29 -0.785,-7.26 -1.061,-7.201C-1.336,-7.142 -1.518,-7.101 -1.604,-7.08L-1.604,0L-3.11,0L-3.11,-8.067C-2.754,-8.197 -2.312,-8.319 -1.782,-8.432C-1.253,-8.545 -0.659,-8.602 0,-8.602" style="fill:rgb(35,31,32);fill-rule:nonzero;"/>
                </g>
                <g transform="matrix(1,0,0,1,246.966,120.332)">
                    <path d="M0,0.001C0,-0.949 -0.213,-1.703 -0.64,-2.259C-1.066,-2.815 -1.646,-3.093 -2.381,-3.093C-3.116,-3.093 -3.696,-2.815 -4.123,-2.259C-4.55,-1.703 -4.763,-0.949 -4.763,0.001C-4.763,0.951 -4.55,1.705 -4.123,2.261C-3.696,2.817 -3.116,3.095 -2.381,3.095C-1.646,3.095 -1.066,2.817 -0.64,2.261C-0.213,1.705 0,0.951 0,0.001M1.571,0.001C1.571,0.67 1.475,1.275 1.28,1.815C1.086,2.355 0.812,2.82 0.462,3.209C0.111,3.597 -0.308,3.897 -0.794,4.107C-1.279,4.318 -1.809,4.423 -2.381,4.423C-2.954,4.423 -3.482,4.318 -3.969,4.107C-4.455,3.897 -4.873,3.597 -5.225,3.209C-5.575,2.82 -5.848,2.355 -6.042,1.815C-6.236,1.275 -6.334,0.67 -6.334,0.001C-6.334,-0.658 -6.236,-1.26 -6.042,-1.806C-5.848,-2.351 -5.575,-2.818 -5.225,-3.207C-4.873,-3.596 -4.455,-3.895 -3.969,-4.106C-3.482,-4.316 -2.954,-4.422 -2.381,-4.422C-1.809,-4.422 -1.279,-4.316 -0.794,-4.106C-0.308,-3.895 0.111,-3.596 0.462,-3.207C0.812,-2.818 1.086,-2.351 1.28,-1.806C1.475,-1.26 1.571,-0.658 1.571,0.001" style="fill:rgb(35,31,32);fill-rule:nonzero;"/>
                </g>
                <g transform="matrix(1,0,0,1,256.021,118.81)">
                    <path d="M0,-0.907C-0.184,-1.058 -0.448,-1.204 -0.794,-1.344C-1.14,-1.485 -1.518,-1.555 -1.928,-1.555C-2.36,-1.555 -2.73,-1.476 -3.037,-1.32C-3.346,-1.163 -3.597,-0.948 -3.791,-0.672C-3.985,-0.397 -4.126,-0.07 -4.212,0.308C-4.299,0.686 -4.342,1.091 -4.342,1.523C-4.342,2.506 -4.099,3.264 -3.612,3.799C-3.127,4.334 -2.479,4.601 -1.669,4.601C-1.259,4.601 -0.915,4.582 -0.64,4.544C-0.364,4.507 -0.151,4.466 0,4.423L0,-0.907ZM0,-6.577L1.507,-6.836L1.507,5.492C1.161,5.589 0.718,5.686 0.178,5.783C-0.362,5.881 -0.983,5.929 -1.685,5.929C-2.333,5.929 -2.916,5.827 -3.435,5.622C-3.953,5.417 -4.396,5.125 -4.763,4.747C-5.13,4.369 -5.414,3.907 -5.613,3.362C-5.813,2.817 -5.913,2.203 -5.913,1.523C-5.913,0.875 -5.829,0.281 -5.662,-0.259C-5.495,-0.799 -5.249,-1.263 -4.925,-1.652C-4.601,-2.041 -4.204,-2.343 -3.734,-2.559C-3.265,-2.775 -2.728,-2.884 -2.122,-2.884C-1.637,-2.884 -1.207,-2.819 -0.834,-2.689C-0.462,-2.559 -0.184,-2.435 0,-2.316L0,-6.577Z" style="fill:rgb(35,31,32);fill-rule:nonzero;"/>
                </g>
                <g transform="matrix(1,0,0,1,265.903,120.332)">
                    <path d="M0,0.001C0,-0.949 -0.213,-1.703 -0.64,-2.259C-1.066,-2.815 -1.646,-3.093 -2.381,-3.093C-3.116,-3.093 -3.696,-2.815 -4.123,-2.259C-4.55,-1.703 -4.763,-0.949 -4.763,0.001C-4.763,0.951 -4.55,1.705 -4.123,2.261C-3.696,2.817 -3.116,3.095 -2.381,3.095C-1.646,3.095 -1.066,2.817 -0.64,2.261C-0.213,1.705 0,0.951 0,0.001M1.571,0.001C1.571,0.67 1.475,1.275 1.28,1.815C1.086,2.355 0.812,2.82 0.462,3.209C0.111,3.597 -0.308,3.897 -0.794,4.107C-1.279,4.318 -1.809,4.423 -2.381,4.423C-2.954,4.423 -3.482,4.318 -3.969,4.107C-4.455,3.897 -4.873,3.597 -5.225,3.209C-5.575,2.82 -5.848,2.355 -6.042,1.815C-6.236,1.275 -6.334,0.67 -6.334,0.001C-6.334,-0.658 -6.236,-1.26 -6.042,-1.806C-5.848,-2.351 -5.575,-2.818 -5.225,-3.207C-4.873,-3.596 -4.455,-3.895 -3.969,-4.106C-3.482,-4.316 -2.954,-4.422 -2.381,-4.422C-1.809,-4.422 -1.279,-4.316 -0.794,-4.106C-0.308,-3.895 0.111,-3.596 0.462,-3.207C0.812,-2.818 1.086,-2.351 1.28,-1.806C1.475,-1.26 1.571,-0.658 1.571,0.001" style="fill:rgb(35,31,32);fill-rule:nonzero;"/>
                </g>
                <g transform="matrix(1,0,0,1,276.19,116.315)">
                    <path d="M0,8.424C-0.302,7.646 -0.623,6.758 -0.964,5.759C-1.304,4.76 -1.614,3.721 -1.896,2.641C-2.176,3.721 -2.483,4.76 -2.818,5.759C-3.153,6.758 -3.472,7.646 -3.774,8.424L-5.087,8.424C-5.583,7.312 -6.069,6.043 -6.545,4.617C-7.02,3.192 -7.468,1.653 -7.889,0L-6.27,0C-6.161,0.508 -6.031,1.059 -5.88,1.653C-5.729,2.246 -5.57,2.841 -5.402,3.434C-5.235,4.028 -5.06,4.601 -4.876,5.152C-4.692,5.702 -4.52,6.183 -4.357,6.593C-4.174,6.086 -3.993,5.549 -3.814,4.982C-3.637,4.415 -3.467,3.842 -3.305,3.264C-3.143,2.687 -2.988,2.12 -2.843,1.563C-2.697,1.007 -2.57,0.486 -2.462,0L-1.215,0C-1.117,0.486 -0.999,1.007 -0.858,1.563C-0.718,2.12 -0.566,2.687 -0.404,3.264C-0.242,3.842 -0.072,4.415 0.105,4.982C0.284,5.549 0.465,6.086 0.648,6.593C0.811,6.183 0.98,5.702 1.158,5.152C1.337,4.601 1.513,4.028 1.686,3.434C1.857,2.841 2.02,2.246 2.171,1.653C2.322,1.059 2.452,0.508 2.56,0L4.115,0C3.694,1.653 3.246,3.192 2.771,4.617C2.295,6.043 1.81,7.312 1.312,8.424L0,8.424Z" style="fill:rgb(35,31,32);fill-rule:nonzero;"/>
                </g>
                <g transform="matrix(1,0,0,1,0,56.138)">
                    <path d="M283.318,68.601L281.811,68.601L281.811,60.177L283.318,60.177L283.318,68.601ZM282.557,58.655C282.287,58.655 282.058,58.565 281.868,58.388C281.68,58.209 281.585,57.969 281.585,57.666C281.585,57.364 281.68,57.124 281.868,56.946C282.058,56.767 282.287,56.678 282.557,56.678C282.826,56.678 283.057,56.767 283.245,56.946C283.434,57.124 283.529,57.364 283.529,57.666C283.529,57.969 283.434,58.209 283.245,58.388C283.057,58.565 282.826,58.655 282.557,58.655" style="fill:rgb(35,31,32);fill-rule:nonzero;"/>
                </g>
                <g transform="matrix(1,0,0,1,287.789,117.191)">
                    <path d="M0,6.269C0.616,6.269 1.072,6.188 1.369,6.026C1.666,5.864 1.814,5.605 1.814,5.248C1.814,4.881 1.669,4.59 1.377,4.373C1.086,4.158 0.605,3.915 -0.064,3.644C-0.389,3.515 -0.699,3.383 -0.996,3.248C-1.293,3.113 -1.55,2.954 -1.766,2.77C-1.981,2.586 -2.154,2.365 -2.284,2.105C-2.413,1.846 -2.479,1.528 -2.479,1.15C-2.479,0.405 -2.203,-0.187 -1.652,-0.624C-1.102,-1.062 -0.351,-1.28 0.6,-1.28C0.837,-1.28 1.075,-1.267 1.312,-1.24C1.55,-1.212 1.771,-1.18 1.977,-1.143C2.182,-1.105 2.362,-1.064 2.52,-1.021C2.676,-0.978 2.798,-0.94 2.884,-0.908L2.608,0.389C2.446,0.302 2.192,0.213 1.847,0.121C1.501,0.029 1.086,-0.017 0.6,-0.017C0.179,-0.017 -0.188,0.067 -0.502,0.234C-0.815,0.402 -0.972,0.664 -0.972,1.02C-0.972,1.204 -0.937,1.366 -0.866,1.506C-0.796,1.646 -0.688,1.773 -0.542,1.887C-0.396,2 -0.216,2.105 0,2.203C0.216,2.3 0.476,2.403 0.778,2.511C1.178,2.662 1.534,2.811 1.847,2.956C2.16,3.102 2.428,3.272 2.649,3.466C2.87,3.661 3.04,3.895 3.159,4.171C3.278,4.446 3.338,4.784 3.338,5.184C3.338,5.961 3.049,6.55 2.471,6.949C1.893,7.349 1.069,7.549 0,7.549C-0.745,7.549 -1.328,7.487 -1.749,7.362C-2.171,7.238 -2.457,7.144 -2.607,7.079L-2.332,5.783C-2.16,5.848 -1.885,5.945 -1.506,6.075C-1.128,6.204 -0.626,6.269 0,6.269" style="fill:rgb(35,31,32);fill-rule:nonzero;"/>
                </g>
                <g transform="matrix(1,0,0,1,296.019,116.801)">
                    <path d="M0,3.305C0.324,3.554 0.667,3.862 1.028,4.228C1.391,4.596 1.747,4.992 2.098,5.419C2.448,5.846 2.78,6.278 3.094,6.715C3.407,7.153 3.672,7.56 3.888,7.938L2.122,7.938C1.896,7.56 1.633,7.174 1.336,6.78C1.039,6.386 0.729,6.008 0.405,5.646C0.081,5.284 -0.249,4.952 -0.583,4.65C-0.918,4.347 -1.237,4.094 -1.539,3.888L-1.539,7.938L-3.046,7.938L-3.046,-4.374L-1.539,-4.633L-1.539,3.046L-0.681,2.187C-0.367,1.874 -0.06,1.555 0.243,1.231C0.545,0.908 0.831,0.597 1.102,0.3C1.371,0.003 1.604,-0.259 1.798,-0.486L3.563,-0.486C3.315,-0.216 3.045,0.081 2.754,0.405C2.462,0.729 2.16,1.056 1.847,1.386C1.533,1.715 1.218,2.044 0.898,2.373C0.58,2.703 0.28,3.013 0,3.305" style="fill:rgb(35,31,32);fill-rule:nonzero;"/>
                </g>
                <g transform="matrix(1,0,0,1,306.743,120.332)">
                    <path d="M0,0.001C0,-0.949 -0.213,-1.703 -0.64,-2.259C-1.066,-2.815 -1.646,-3.093 -2.381,-3.093C-3.116,-3.093 -3.696,-2.815 -4.123,-2.259C-4.55,-1.703 -4.763,-0.949 -4.763,0.001C-4.763,0.951 -4.55,1.705 -4.123,2.261C-3.696,2.817 -3.116,3.095 -2.381,3.095C-1.646,3.095 -1.066,2.817 -0.64,2.261C-0.213,1.705 0,0.951 0,0.001M1.571,0.001C1.571,0.67 1.475,1.275 1.28,1.815C1.086,2.355 0.812,2.82 0.462,3.209C0.111,3.597 -0.308,3.897 -0.794,4.107C-1.279,4.318 -1.809,4.423 -2.381,4.423C-2.954,4.423 -3.482,4.318 -3.969,4.107C-4.455,3.897 -4.873,3.597 -5.225,3.209C-5.575,2.82 -5.848,2.355 -6.042,1.815C-6.236,1.275 -6.334,0.67 -6.334,0.001C-6.334,-0.658 -6.236,-1.26 -6.042,-1.806C-5.848,-2.351 -5.575,-2.818 -5.225,-3.207C-4.873,-3.596 -4.455,-3.895 -3.969,-4.106C-3.482,-4.316 -2.954,-4.422 -2.381,-4.422C-1.809,-4.422 -1.279,-4.316 -0.794,-4.106C-0.308,-3.895 0.111,-3.596 0.462,-3.207C0.812,-2.818 1.086,-2.351 1.28,-1.806C1.475,-1.26 1.571,-0.658 1.571,0.001" style="fill:rgb(35,31,32);fill-rule:nonzero;"/>
                </g>
            </g>
        </g>
    </g>
</svg>
