<?xml version="1.0" encoding="UTF-8" standalone="no"?><!DOCTYPE svg PUBLIC "-//W3C//DTD SVG 1.1//EN" "http://www.w3.org/Graphics/SVG/1.1/DTD/svg11.dtd"><svg width="100%" height="100%" viewBox="0 0 462 594" version="1.1" xmlns="http://www.w3.org/2000/svg" xmlns:xlink="http://www.w3.org/1999/xlink" xml:space="preserve" xmlns:serif="http://www.serif.com/" style="fill-rule:evenodd;clip-rule:evenodd;stroke-linejoin:round;stroke-miterlimit:2;"><g><path d="M133.68,412.868c125.828,0 198.581,-78.052 198.581,-207.002c0,-128.382 -72.753,-205.866 -194.324,-205.866l-137.937,0l0,412.868l133.68,0Zm-71.334,-54.4l0,-303.974l71.712,0c90.351,0 136.898,54.02 136.898,151.372c0,97.73 -46.547,152.602 -140.682,152.602l-67.928,0Z" style="fill:#182e51;fill-rule:nonzero;"/><path d="M217.279,593.979l65.089,0l179.564,-357.616l0,-55.25l-272.941,0l0,53.453l208.515,0l0,3.027l-180.227,356.386Z" style="fill:#182e51;fill-rule:nonzero;"/><path d="M234.79,234.323l-0.203,-39.934c12.099,0.208 19.747,0 36.297,0.622c-2.183,-31.731 -6.039,-47.592 -16.328,-73.766c13.001,0 21.344,-0.9 33.468,-0.058c3.405,0.309 7.306,3.089 9.621,9.613c6.948,19.585 11.801,35.325 14.345,63.589l39.728,-0.511l-0.178,39.881c-11.295,0.187 -26.395,0.825 -39.311,1.056c-2.199,26.405 -2.87,34.578 -13.394,64.068c-0.917,2.57 -5.892,4.117 -8.621,4.076c-13.646,-0.203 -3.936,0.632 -41.804,-0.933c12.264,-15.156 18.94,-43.393 21.078,-67.46l-34.698,-0.243Z" style="fill:#1c1917;"/><path d="M254.117,221.047l-0.202,-39.934c12.1,0.206 19.747,0 36.297,0.621c-2.182,-31.731 -11.575,-47.651 -21.867,-73.825c13.003,0 26.883,-0.841 39.007,0c3.406,0.308 8.148,1.771 10.462,8.296c6.948,19.583 10.961,36.644 13.504,64.908l33.388,0l-0.177,39.881c-11.297,0.186 -20.055,0.313 -32.972,0.544c-2.199,26.406 -0.272,36.02 -10.795,65.512c-0.917,2.569 -5.892,4.116 -8.621,4.075c-13.646,-0.202 -30.325,-1.856 -43.537,-2.054c11.829,-26.675 20.041,-43.479 20.162,-60.783l0.05,-6.999l-34.699,-0.242Z" style="fill:#ef7f1a;"/></g></svg>